<mxfile host="app.diagrams.net" modified="2020-06-13T19:08:16.286Z" agent="5.0 (Windows NT 10.0; Win64; x64) AppleWebKit/537.36 (KHTML, like Gecko) Chrome/81.0.4044.138 Safari/537.36" etag="kNcvp6LgEd77fM4r2ocm" version="13.2.4" type="github">
  <diagram id="FSy2QzFsm5GAaBKMfJyQ" name="Page-1">
    <mxGraphModel dx="1422" dy="766" grid="1" gridSize="10" guides="1" tooltips="1" connect="1" arrows="1" fold="1" page="1" pageScale="1" pageWidth="850" pageHeight="1100" math="0" shadow="0">
      <root>
        <mxCell id="0" />
        <mxCell id="1" parent="0" />
        <mxCell id="mJeFwuJi_RyHJ9WHPj2d-1" value="Use Cases:&lt;br&gt;- showcase portfolio&lt;br&gt;- management of internal tools" style="rounded=1;whiteSpace=wrap;html=1;" vertex="1" parent="1">
          <mxGeometry x="40" y="40" width="120" height="60" as="geometry" />
        </mxCell>
        <mxCell id="mJeFwuJi_RyHJ9WHPj2d-3" value="Traefik" style="rounded=1;whiteSpace=wrap;html=1;" vertex="1" parent="1">
          <mxGeometry x="330" y="150" width="120" height="60" as="geometry" />
        </mxCell>
        <mxCell id="mJeFwuJi_RyHJ9WHPj2d-4" value="Client" style="whiteSpace=wrap;html=1;aspect=fixed;" vertex="1" parent="1">
          <mxGeometry x="140" y="310" width="80" height="80" as="geometry" />
        </mxCell>
        <mxCell id="mJeFwuJi_RyHJ9WHPj2d-5" value="App 1" style="whiteSpace=wrap;html=1;aspect=fixed;" vertex="1" parent="1">
          <mxGeometry x="270" y="310" width="80" height="80" as="geometry" />
        </mxCell>
        <mxCell id="mJeFwuJi_RyHJ9WHPj2d-6" value="App 2" style="whiteSpace=wrap;html=1;aspect=fixed;" vertex="1" parent="1">
          <mxGeometry x="410" y="310" width="80" height="80" as="geometry" />
        </mxCell>
        <mxCell id="mJeFwuJi_RyHJ9WHPj2d-7" value="App 3" style="whiteSpace=wrap;html=1;aspect=fixed;" vertex="1" parent="1">
          <mxGeometry x="550" y="310" width="80" height="80" as="geometry" />
        </mxCell>
        <mxCell id="mJeFwuJi_RyHJ9WHPj2d-8" value="" style="endArrow=none;html=1;exitX=0;exitY=0.5;exitDx=0;exitDy=0;entryX=0.5;entryY=0;entryDx=0;entryDy=0;" edge="1" parent="1" source="mJeFwuJi_RyHJ9WHPj2d-3" target="mJeFwuJi_RyHJ9WHPj2d-4">
          <mxGeometry width="50" height="50" relative="1" as="geometry">
            <mxPoint x="140" y="270" as="sourcePoint" />
            <mxPoint x="190" y="220" as="targetPoint" />
          </mxGeometry>
        </mxCell>
        <mxCell id="mJeFwuJi_RyHJ9WHPj2d-9" value="wyvern.example.com" style="text;html=1;strokeColor=none;fillColor=none;align=center;verticalAlign=middle;whiteSpace=wrap;rounded=0;" vertex="1" parent="1">
          <mxGeometry x="200" y="210" width="40" height="20" as="geometry" />
        </mxCell>
        <mxCell id="mJeFwuJi_RyHJ9WHPj2d-10" style="edgeStyle=orthogonalEdgeStyle;rounded=0;orthogonalLoop=1;jettySize=auto;html=1;exitX=0.5;exitY=0;exitDx=0;exitDy=0;entryX=0;entryY=0.25;entryDx=0;entryDy=0;" edge="1" parent="1" source="mJeFwuJi_RyHJ9WHPj2d-9" target="mJeFwuJi_RyHJ9WHPj2d-9">
          <mxGeometry relative="1" as="geometry" />
        </mxCell>
        <mxCell id="mJeFwuJi_RyHJ9WHPj2d-11" value="internet" style="ellipse;shape=cloud;whiteSpace=wrap;html=1;" vertex="1" parent="1">
          <mxGeometry x="340" y="10" width="120" height="80" as="geometry" />
        </mxCell>
        <mxCell id="mJeFwuJi_RyHJ9WHPj2d-12" value="" style="endArrow=none;dashed=1;html=1;exitX=0.5;exitY=0;exitDx=0;exitDy=0;" edge="1" parent="1" source="mJeFwuJi_RyHJ9WHPj2d-3" target="mJeFwuJi_RyHJ9WHPj2d-11">
          <mxGeometry width="50" height="50" relative="1" as="geometry">
            <mxPoint x="380" y="130" as="sourcePoint" />
            <mxPoint x="430" y="80" as="targetPoint" />
          </mxGeometry>
        </mxCell>
        <mxCell id="mJeFwuJi_RyHJ9WHPj2d-14" value="" style="endArrow=none;html=1;entryX=0.25;entryY=1;entryDx=0;entryDy=0;exitX=0.5;exitY=0;exitDx=0;exitDy=0;" edge="1" parent="1" source="mJeFwuJi_RyHJ9WHPj2d-5" target="mJeFwuJi_RyHJ9WHPj2d-3">
          <mxGeometry width="50" height="50" relative="1" as="geometry">
            <mxPoint x="330" y="270" as="sourcePoint" />
            <mxPoint x="380" y="220" as="targetPoint" />
          </mxGeometry>
        </mxCell>
        <mxCell id="mJeFwuJi_RyHJ9WHPj2d-15" value="" style="endArrow=none;html=1;entryX=0.25;entryY=1;entryDx=0;entryDy=0;exitX=0.663;exitY=0.013;exitDx=0;exitDy=0;exitPerimeter=0;" edge="1" parent="1" source="mJeFwuJi_RyHJ9WHPj2d-6">
          <mxGeometry width="50" height="50" relative="1" as="geometry">
            <mxPoint x="360" y="310" as="sourcePoint" />
            <mxPoint x="410" y="210" as="targetPoint" />
          </mxGeometry>
        </mxCell>
        <mxCell id="mJeFwuJi_RyHJ9WHPj2d-16" value="" style="endArrow=none;html=1;entryX=1;entryY=0.5;entryDx=0;entryDy=0;exitX=0.5;exitY=0;exitDx=0;exitDy=0;" edge="1" parent="1" source="mJeFwuJi_RyHJ9WHPj2d-7" target="mJeFwuJi_RyHJ9WHPj2d-3">
          <mxGeometry width="50" height="50" relative="1" as="geometry">
            <mxPoint x="520" y="300" as="sourcePoint" />
            <mxPoint x="570" y="200" as="targetPoint" />
          </mxGeometry>
        </mxCell>
      </root>
    </mxGraphModel>
  </diagram>
</mxfile>
